#!OML:ASF H:\Male1\Project 1\Capture day 1\Session 1\Male1.ASF
:FULLY-SPECIFIED
:DEGREES
484
root 47.4157 15.0997 -1.89838 3.77473 -7.35188 3.02964
lowerback 6.00858 4.67238 -5.08701
upperback 3.76303 5.94584 -7.64204
thorax 0.866942 2.97567 -5.41449
lowerneck -7.12667 7.80726 8.30171
upperneck 20.7957 9.64936 -0.45381
head 8.05531 5.16733 -0.612645
rclavicle -1.63003e-014 -3.02153e-014
rhumerus -48.8517 3.9838 -89.3739
rradius 41.832
rwrist -20.9201
rhand -16.7935 4.21624
rfingers 7.12502
rthumb 9.43456 -25.5526
lclavicle -1.63003e-014 -3.02153e-014
lhumerus -32.1622 -8.88642 76.6848
lradius 33.1441
lwrist 4.85592
lhand -21.2408 14.8498
lfingers 7.12502
lthumb 5.14184 44.7674
rfemur -1.38154 11.7805 31.7814
rtibia 25.5018
rfoot -45.9174 -36.2009
rtoes -7.61615
lfemur -20.5222 -0.275723 -26.9851
ltibia 35.2368
lfoot -25.972 2.49996
ltoes -33.449
485
root 47.4314 15.1096 -1.92381 3.74117 -7.76993 3.16502
lowerback 6.1692 4.69942 -5.27075
upperback 3.75305 5.95134 -7.73229
thorax 0.76028 2.97578 -5.42499
lowerneck -7.19211 7.85674 8.2015
upperneck 20.6785 9.68992 -0.29097
head 8.01589 5.19128 -0.539696
rclavicle -2.26615e-014 9.22361e-014
rhumerus -48.7221 4.11251 -89.5025
rradius 41.9911
rwrist -20.844
rhand -16.8052 4.04761
rfingers 7.12502
rthumb 9.42332 -25.7217
lclavicle -2.26615e-014 9.22361e-014
lhumerus -32.1987 -9.02222 76.5765
lradius 32.9963
lwrist 4.95368
lhand -21.1358 14.5603
lfingers 7.12502
lthumb 5.24326 44.4754
rfemur -1.41601 11.7334 31.4768
rtibia 25.3741
rfoot -45.2132 -36.1669
rtoes -8.47161
lfemur -20.7329 -0.447885 -27.0769
ltibia 35.4422
lfoot -25.3077 2.64006
ltoes -33.3366
486
root 47.445 15.1231 -1.94817 3.68683 -8.12563 3.2681
lowerback 6.35196 4.68238 -5.37605
upperback 3.76772 5.90194 -7.84834
thorax 0.674759 2.95052 -5.50409
lowerneck -7.34015 7.87029 8.08538
upperneck 20.5827 9.6684 -0.0901642
head 7.99282 5.18772 -0.454572
rclavicle -3.81667e-014 -3.49861e-014
rhumerus -48.5839 4.21905 -89.7555
rradius 42.2327
rwrist -20.6411
rhand -16.9124 3.11443
rfingers 7.12502
rthumb 9.31985 -26.6596
lclavicle -3.81667e-014 -3.49861e-014
lhumerus -32.2324 -9.32616 76.4587
lradius 32.9113
lwrist 5.23619
lhand -21.3936 14.5352
lfingers 7.12502
lthumb 4.99428 44.4564
rfemur -1.38934 11.9393 31.2914
rtibia 25.2287
rfoot -44.6983 -36.3567
rtoes -8.87628
lfemur -20.9693 -0.921128 -27.0479
ltibia 35.7114
lfoot -24.7187 2.60772
ltoes -33.5714
487
root 47.4605 15.1339 -1.96807 3.64319 -8.33411 3.18572
lowerback 6.52199 4.67241 -5.19473
upperback 3.80781 5.8835 -7.91659
thorax 0.647126 2.94626 -5.68965
lowerneck -7.54276 7.79651 7.98848
upperneck 20.5138 9.52953 0.0638135
head 7.98696 5.12632 -0.396975
rclavicle -1.08139e-013 5.40694e-014
rhumerus -48.4795 4.065 -89.9119
rradius 42.4201
rwrist -20.3899
rhand -17.0368 2.58535
rfingers 7.12502
rthumb 9.19985 -27.194
lclavicle -1.08139e-013 5.40694e-014
lhumerus -32.1992 -9.84739 76.4517
lradius 32.8245
lwrist 5.51834
lhand -21.7337 14.749
lfingers 7.12502
lthumb 4.66592 44.6777
rfemur -1.33864 12.1566 31.3235
rtibia 25.0713
rfoot -44.3926 -36.6696
rtoes -9.41626
lfemur -21.2414 -1.76042 -26.7569
ltibia 36.0535
lfoot -24.0501 2.69641
ltoes -35.6667
488
root 47.4795 15.1408 -1.98457 3.57609 -8.46108 3.09843
lowerback 6.70429 4.69137 -4.90193
upperback 3.86827 5.91236 -7.97924
thorax 0.647624 2.96843 -5.93425
lowerneck -7.311 7.81477 8.25675
upperneck 20.0254 9.63686 -0.467958
head 7.82809 5.14542 -0.619845
rclavicle -4.21423e-014 1.27222e-014
rhumerus -48.442 3.97616 -90.0223
rradius 42.5836
rwrist -20.4202
rhand -17.1146 2.63758
rfingers 7.12502
rthumb 9.12472 -27.145
lclavicle -4.21423e-014 1.27222e-014
lhumerus -32.0368 -10.2748 76.419
lradius 32.5976
lwrist 5.2614
lhand -21.6801 14.7558
lfingers 7.12502
lthumb 4.71768 44.6833
rfemur -1.23155 12.4691 31.3809
rtibia 24.8656
rfoot -44.3584 -36.8892
rtoes -9.43713
lfemur -21.5107 -2.75426 -26.4257
ltibia 36.4568
lfoot -23.4494 2.42958
ltoes -38.2033
489
root 47.4924 15.1448 -2.00131 3.48013 -8.71764 3.12291
lowerback 6.89434 4.74922 -4.80184
upperback 3.92438 5.97963 -8.06226
thorax 0.626042 3.00594 -6.0979
lowerneck -7.3442 7.68621 8.2843
upperneck 19.8821 9.47826 -0.609861
head 7.78699 5.05791 -0.688058
rclavicle -3.97569e-014 -2.8625e-014
rhumerus -48.3967 4.21333 -90.2241
rradius 42.746
rwrist -20.7284
rhand -17.1752 2.57586
rfingers 7.12502
rthumb 9.06632 -27.2093
lclavicle -3.97569e-014 -2.8625e-014
lhumerus -31.8306 -10.4153 76.2709
lradius 32.362
lwrist 4.67476
lhand -21.339 14.5415
lfingers 7.12502
lthumb 5.04698 44.4614
rfemur -1.10059 12.6843 31.3257
rtibia 24.6677
rfoot -44.3426 -36.7889
rtoes -8.93521
lfemur -21.7355 -3.32364 -26.1662
ltibia 36.8411
lfoot -23.0318 1.32504
ltoes -37.7453
490
root 47.4977 15.147 -2.01595 3.42257 -9.06322 3.10523
lowerback 7.03897 4.82651 -4.78793
upperback 3.94278 6.06803 -8.11327
thorax 0.579558 3.05123 -6.17886
lowerneck -7.25897 7.78399 8.2788
upperneck 19.5398 9.6567 -0.812451
head 7.67581 5.12136 -0.744776
rclavicle 5.1684e-014 6.36111e-015
rhumerus -48.3214 4.4592 -90.4386
rradius 42.8036
rwrist -20.8869
rhand -17.1449 2.47433
rfingers 7.12502
rthumb 9.09554 -27.3095
lclavicle 5.1684e-014 6.36111e-015
lhumerus -31.7005 -10.4419 76.108
lradius 32.2363
lwrist 4.30407
lhand -21.0136 14.4161
lfingers 7.12502
lthumb 5.36124 44.3283
rfemur -0.996675 12.8218 31.3236
rtibia 24.5148
rfoot -44.2489 -36.6673
rtoes -8.5432
lfemur -21.9217 -3.54842 -25.8582
ltibia 37.152
lfoot -22.6835 0.43305
ltoes -36.5788
491
root 47.5036 15.149 -2.02365 3.38182 -9.37041 3.10486
lowerback 7.12921 4.87267 -4.7689
upperback 3.93457 6.11885 -8.1558
thorax 0.532039 3.07754 -6.24749
lowerneck -7.11414 7.85716 8.28776
upperneck 19.2493 9.80467 -1.01874
head 7.57154 5.17277 -0.809482
rclavicle -3.18055e-015 4.13472e-014
rhumerus -48.305 4.57763 -90.5943
rradius 42.8403
rwrist -20.7889
rhand -16.8949 2.50175
rfingers 7.12502
rthumb 9.33677 -27.2715
lclavicle -3.18055e-015 4.13472e-014
lhumerus -31.703 -10.4657 75.985
lradius 32.1866
lwrist 4.30312
lhand -20.9869 14.5068
lfingers 7.12502
lthumb 5.38698 44.4183
rfemur -0.870036 13.2061 31.3467
rtibia 24.3851
rfoot -44.2957 -36.7622
rtoes -8.14307
lfemur -22.0135 -3.87483 -25.6332
ltibia 37.368
lfoot -22.5152 0.253542
ltoes -37.4574
492
root 47.5107 15.1516 -2.02312 3.34385 -9.69579 3.04774
lowerback 7.14829 4.88373 -4.68689
upperback 3.9217 6.13451 -8.1509
thorax 0.516953 3.08653 -6.2912
lowerneck -7.02495 7.93213 8.26456
upperneck 19.087 9.95714 -1.23262
head 7.51875 5.22449 -0.866295
rclavicle -1.82882e-014 4.92986e-014
rhumerus -48.3291 4.88233 -90.7562
rradius 42.9082
rwrist -20.6262
rhand -16.7128 2.37629
rfingers 7.12502
rthumb 9.51249 -27.389
lclavicle -1.82882e-014 4.92986e-014
lhumerus -31.8228 -10.3248 75.8876
lradius 32.1921
lwrist 4.47523
lhand -21.2893 14.808
lfingers 7.12502
lthumb 5.09501 44.7268
rfemur -0.742111 13.586 31.4158
rtibia 24.3018
rfoot -44.1794 -36.5629
rtoes -6.35864
lfemur -21.9781 -4.44191 -25.4078
ltibia 37.4779
lfoot -22.6876 0.440874
ltoes -38.596
493
root 47.5149 15.1505 -2.01537 3.2902 -10.0288 2.87871
lowerback 7.11438 4.9158 -4.52374
upperback 3.91711 6.19022 -8.10836
thorax 0.546811 3.11678 -6.33633
lowerneck -6.96325 8.01164 8.10155
upperneck 18.9656 10.082 -1.17735
head 7.46157 5.27682 -0.816261
rclavicle -3.26007e-014 6.20208e-014
rhumerus -48.388 5.69879 -91.0105
rradius 43.056
rwrist -20.8208
rhand -16.8491 2.00654
rfingers 7.12502
rthumb 9.38096 -27.7647
lclavicle -3.26007e-014 6.20208e-014
lhumerus -31.9637 -10.1904 75.8014
lradius 32.2285
lwrist 4.67616
lhand -21.6352 15.126
lfingers 7.12502
lthumb 4.761 45.0525
rfemur -0.57776 14.0935 31.6611
rtibia 24.3019
rfoot -44.0819 -36.2762
rtoes -3.70935
lfemur -21.7891 -5.08862 -25.1396
ltibia 37.4672
lfoot -23.1756 0.882703
ltoes -39.1459
